<svg width="26" height="26" viewBox="0 0 26 26" fill="none" xmlns="http://www.w3.org/2000/svg">
<path id="Vector" d="M25.3952 5.17938C25.3283 5.04938 25.2316 4.937 25.1131 4.85139C24.9946 4.76579 24.8575 4.70938 24.713 4.68676C24.5685 4.66414 24.4207 4.67595 24.2817 4.72122C24.1426 4.7665 24.0163 4.84396 23.9128 4.94731L20.3469 8.51432C20.1718 8.68677 19.9359 8.78344 19.6902 8.78344C19.4444 8.78344 19.2085 8.68677 19.0334 8.51432L17.4919 6.97101C17.4057 6.88481 17.3372 6.78246 17.2906 6.66982C17.2439 6.55718 17.2198 6.43645 17.2198 6.31453C17.2198 6.1926 17.2439 6.07187 17.2906 5.95923C17.3372 5.84659 17.4057 5.74425 17.4919 5.65804L21.0428 2.10785C21.1492 2.00146 21.2282 1.87079 21.2729 1.72711C21.3176 1.58342 21.3267 1.43102 21.2994 1.28304C21.2721 1.13506 21.2092 0.995936 21.1162 0.877643C21.0232 0.75935 20.9027 0.665439 20.7653 0.603999C18.0833 -0.594675 14.7356 0.0307704 12.6247 2.12526C10.8313 3.90528 10.2967 6.68672 11.1592 9.75651C11.2057 9.92021 11.206 10.0936 11.16 10.2574C11.114 10.4213 11.0235 10.5692 10.8986 10.6848L1.23619 19.5066C0.859774 19.8445 0.556151 20.2554 0.343848 20.7145C0.131545 21.1735 0.0150118 21.6709 0.00135708 22.1764C-0.0122977 22.6819 0.0772124 23.1849 0.264427 23.6547C0.451642 24.1245 0.732636 24.5513 1.09027 24.909C1.4479 25.2666 1.87468 25.5477 2.34456 25.7351C2.81444 25.9224 3.31758 26.0121 3.82328 25.9987C4.32899 25.9853 4.82665 25.869 5.28592 25.657C5.74519 25.4449 6.15644 25.1416 6.49458 24.7655L15.4141 15.085C15.5281 14.9617 15.6736 14.8719 15.8348 14.8252C15.9961 14.7784 16.1671 14.7766 16.3294 14.8198C17.2037 15.0593 18.1055 15.1835 19.012 15.1894C20.9505 15.1894 22.6516 14.5622 23.8786 13.3537C26.1508 11.1159 26.4973 7.32029 25.3952 5.17938ZM3.91704 24.1302C3.53479 24.1719 3.14901 24.0939 2.81295 23.9071C2.47689 23.7204 2.20711 23.4339 2.04085 23.0873C1.87458 22.7407 1.82003 22.3511 1.88472 21.9722C1.94941 21.5933 2.13015 21.2438 2.40199 20.9719C2.67384 20.7001 3.0234 20.5193 3.40241 20.4545C3.78143 20.3897 4.17122 20.4441 4.51799 20.6101C4.86477 20.7762 5.15143 21.0458 5.33841 21.3817C5.52539 21.7176 5.60347 22.1032 5.56188 22.4853C5.51612 22.9058 5.32814 23.298 5.02903 23.5971C4.72992 23.8962 4.33762 24.0843 3.91704 24.1302Z" fill="#323130"/>
</svg>
